<?xml version="1.0" standalone="no"?>
<!DOCTYPE svg PUBLIC "-//W3C//DTD SVG 20010904//EN"
 "http://www.w3.org/TR/2001/REC-SVG-20010904/DTD/svg10.dtd">
<svg version="1.0" xmlns="http://www.w3.org/2000/svg"
 width="728.000000pt" height="502.000000pt" viewBox="0 0 728.000000 502.000000"
 preserveAspectRatio="xMidYMid meet">

<g transform="translate(0.000000,502.000000) scale(0.100000,-0.100000)"
fill="#000000" stroke="none">
<path d="M5803 3671 c-76 -55 -103 -112 -118 -245 -4 -33 -10 -68 -14 -80 -8
-19 -9 -19 -35 7 -27 27 -42 36 -31 17 3 -5 -3 -10 -15 -10 -12 0 -19 -4 -16
-8 8 -14 -32 -42 -51 -36 -10 3 -7 -2 7 -10 22 -14 23 -15 5 -16 -15 0 -17 -2
-6 -9 11 -7 10 -14 -5 -40 -10 -17 -22 -31 -26 -31 -4 0 -8 -7 -8 -15 0 -8 -4
-15 -10 -15 -5 0 -7 -6 -4 -14 3 -8 -7 -24 -25 -37 -17 -12 -27 -27 -24 -32 3
-6 1 -7 -5 -4 -17 11 -44 -3 -32 -18 7 -8 6 -12 -3 -13 -45 -6 -76 -15 -72
-23 3 -4 12 -6 19 -3 8 3 16 1 20 -4 3 -5 -5 -8 -17 -7 -31 3 -49 -5 -43 -20
3 -9 -7 -11 -37 -8 -40 5 -41 4 -22 -11 20 -15 20 -15 -2 -11 -15 2 -23 -1
-23 -11 0 -13 -4 -13 -29 0 -27 14 -29 14 -40 -10 -9 -22 -14 -24 -26 -14 -8
7 -15 8 -15 3 0 -10 -88 -12 -105 -2 -5 4 -18 5 -28 4 -14 -3 -16 0 -7 10 9
11 7 12 -9 8 -12 -3 -18 -9 -15 -14 6 -10 -25 0 -43 13 -6 5 -20 9 -30 8 -35
-4 -42 0 -36 18 6 15 5 15 -10 3 -11 -9 -17 -10 -17 -2 0 6 -9 11 -19 11 -34
0 -50 11 -43 28 5 15 4 16 -13 2 -10 -8 -16 -10 -12 -4 6 11 -10 20 -53 29 -8
2 -16 9 -18 15 -2 5 -8 8 -13 5 -5 -4 -6 2 -2 11 5 14 3 16 -11 11 -9 -4 -15
-3 -11 2 7 12 -31 25 -45 16 -6 -4 -9 -1 -8 7 2 7 -5 12 -15 11 -10 0 -16 2
-12 5 6 6 -78 62 -93 62 -5 0 -19 9 -31 19 -16 14 -18 21 -9 25 7 3 3 3 -10 0
-25 -6 -61 20 -39 30 6 3 0 3 -15 0 -16 -4 -28 -2 -28 4 0 5 -40 24 -89 42
-73 26 -93 30 -110 20 -12 -6 -26 -8 -31 -5 -6 3 -10 2 -10 -3 0 -5 -8 -12
-17 -16 -10 -3 -24 -9 -30 -12 -7 -3 -13 -1 -13 4 0 16 101 62 135 62 64 0
238 -77 363 -161 51 -34 52 -46 -10 131 -62 175 -98 240 -134 240 -2 0 -31
-25 -64 -55 -33 -30 -65 -55 -72 -55 -16 0 -108 -42 -108 -50 0 -3 12 -11 28
-16 23 -9 20 -10 -23 -6 -44 3 -55 0 -93 -28 -28 -20 -42 -37 -38 -46 3 -8 -1
-14 -10 -14 -20 0 -142 -39 -176 -57 -34 -16 -37 -33 -5 -27 20 4 20 4 2 -5
-11 -4 -23 -7 -27 -4 -4 2 -12 -5 -17 -16 -7 -13 -17 -17 -31 -14 -35 9 -143
-52 -198 -112 -28 -30 -56 -55 -62 -55 -10 0 -68 -28 -185 -89 -22 -11 -68
-30 -102 -42 -35 -12 -60 -25 -58 -29 3 -4 -6 -11 -19 -14 -14 -3 -37 -17 -53
-30 -40 -33 -81 -52 -132 -60 -49 -7 -93 -28 -121 -56 -14 -14 -28 -18 -50
-14 -34 7 -90 -12 -90 -31 0 -7 -25 -25 -55 -41 -39 -19 -54 -32 -50 -42 4
-12 3 -13 -10 -2 -16 14 -21 0 -5 -16 6 -6 3 -10 -10 -10 -11 0 -20 6 -20 13
0 7 -5 13 -11 13 -5 0 -7 -4 -4 -10 3 -5 0 -7 -7 -5 -16 6 -132 -23 -238 -60
-41 -14 -196 -66 -345 -114 -314 -103 -604 -205 -643 -225 -15 -8 -38 -24 -51
-35 -13 -12 -29 -21 -36 -21 -18 0 -38 -50 -25 -65 7 -9 6 -16 -5 -25 -18 -15
-20 -37 -2 -43 9 -3 9 -9 -2 -30 -11 -21 -11 -29 -2 -41 8 -10 9 -16 1 -21
-15 -9 -12 -45 5 -51 10 -4 12 -11 6 -23 -9 -15 1 -47 18 -61 4 -3 14 -17 23
-32 10 -14 31 -29 47 -33 16 -3 32 -13 35 -21 3 -8 27 -24 53 -36 26 -11 53
-26 59 -33 17 -16 125 -28 138 -15 20 20 66 12 77 -14 23 -50 186 -78 220 -38
15 17 14 20 -15 40 -18 12 -77 29 -141 42 -187 37 -325 83 -373 125 -49 42
-68 128 -24 110 9 -4 82 -21 162 -37 138 -28 167 -30 600 -44 250 -8 532 -17
625 -21 216 -10 430 -10 520 -1 145 14 399 66 610 125 170 47 240 63 285 64
25 1 54 5 65 9 11 5 47 13 80 19 33 6 80 15 105 20 93 19 238 38 548 71 256
27 483 41 797 49 l270 6 3 105 c3 107 -20 342 -26 267 -3 -30 -7 -37 -18 -33
-9 3 -18 6 -20 6 -2 0 -4 5 -4 11 0 5 3 8 8 6 4 -3 7 8 7 23 0 16 -3 32 -7 36
-18 17 -6 26 12 9 25 -22 25 -16 0 87 -11 46 -20 104 -20 129 0 41 -23 146
-49 224 -30 91 -38 134 -34 182 4 33 1 58 -6 67 -21 25 0 66 76 153 83 96 100
124 109 181 8 53 0 83 -32 121 -33 40 -68 40 -121 2z m76 -47 c45 -57 17 -173
-63 -262 -18 -20 -45 -54 -59 -75 -24 -35 -26 -36 -32 -16 -9 27 3 231 16 279
5 19 18 50 29 68 26 43 78 46 109 6z m-1679 -324 c25 -10 44 -23 43 -29 -2 -6
3 -8 10 -5 7 2 21 -3 32 -12 18 -14 18 -15 2 -10 -11 4 -16 2 -12 -5 4 -5 15
-7 25 -4 28 9 131 -60 124 -83 -4 -12 -3 -14 4 -4 7 10 20 7 63 -17 43 -24 54
-35 51 -53 -1 -15 1 -19 6 -10 6 9 16 10 34 3 37 -14 41 -26 12 -40 -38 -17
-52 -13 -25 9 13 11 18 20 13 20 -6 0 -14 -5 -17 -10 -4 -6 -11 -8 -16 -5 -5
4 -9 -2 -10 -12 0 -14 -2 -14 -9 5 -7 16 -18 22 -39 22 -16 0 -33 5 -36 10 -4
6 -10 8 -14 5 -5 -2 -16 4 -26 15 -10 11 -24 20 -32 20 -8 0 -11 5 -7 11 5 8
-3 10 -25 7 -17 -2 -31 0 -31 4 0 14 -27 38 -43 38 -19 0 -40 26 -32 40 3 6
-3 10 -14 10 -12 0 -21 4 -21 9 0 5 -10 11 -22 15 -13 3 -35 17 -50 31 -16 14
-28 21 -28 16 0 -6 -7 -8 -16 -4 -15 6 -15 8 2 20 24 17 50 16 104 -7z m-135
-10 c-3 -5 -14 -10 -23 -9 -14 0 -13 2 3 9 27 11 27 11 20 0z m-222 -85 c-7
-19 11 -19 27 0 18 22 39 19 33 -5 -3 -11 -9 -17 -14 -14 -5 3 -18 -5 -28 -18
-19 -22 -19 -22 -40 -4 -20 19 -20 42 1 30 7 -5 9 -2 5 8 -6 18 1 30 14 22 4
-2 6 -11 2 -19z m357 15 c0 -5 -2 -10 -4 -10 -3 0 -8 5 -11 10 -3 6 -1 10 4
10 6 0 11 -4 11 -10z m-399 -57 c13 -16 12 -17 -3 -4 -17 13 -22 21 -14 21 2
0 10 -8 17 -17z m-125 -2 c-6 -9 -46 -22 -46 -15 0 3 10 9 23 14 29 11 29 11
23 1z m100 -3 c4 -7 3 -8 -4 -4 -7 4 -12 0 -12 -10 0 -10 -3 -15 -6 -11 -7 6
2 37 10 37 3 0 8 -5 12 -12z m127 -5 c-7 -2 -19 -2 -25 0 -7 3 -2 5 12 5 14 0
19 -2 13 -5z m-74 -35 c14 -23 14 -23 -8 -4 -22 20 -30 9 -8 -13 10 -11 10
-13 0 -7 -9 5 -13 -1 -14 -16 -1 -17 -3 -18 -6 -5 -2 9 -10 15 -16 11 -7 -3
-4 1 5 9 10 8 15 17 12 20 -7 7 4 27 14 27 4 0 13 -10 21 -22z m-84 2 c3 -5 1
-10 -4 -10 -6 0 -11 5 -11 10 0 6 2 10 4 10 3 0 8 -4 11 -10z m186 -3 c16 -1
23 -27 8 -27 -5 0 -6 -8 -3 -17 5 -15 4 -15 -4 -3 -6 8 -9 17 -6 21 6 10 -22
19 -46 14 -11 -2 -20 0 -20 4 0 15 15 22 35 16 11 -4 27 -7 36 -8z m-387 -51
c-9 -15 -19 -25 -21 -22 -3 2 3 16 13 30 9 15 19 25 21 22 3 -2 -3 -16 -13
-30z m845 3 c-19 -12 -52 -7 -55 9 -1 7 0 8 3 2 8 -16 43 -12 50 7 5 12 8 13
11 4 2 -7 -2 -17 -9 -22z m-775 15 c17 -6 23 -44 7 -44 -5 0 -8 8 -7 17 0 10
-7 19 -18 21 -11 2 -16 0 -12 -7 4 -6 0 -11 -8 -11 -9 0 -16 -5 -16 -12 0 -6
-3 -8 -7 -5 -7 7 25 47 38 47 4 0 14 -3 23 -6z m115 -27 c-2 -1 -13 -9 -24
-17 -19 -14 -19 -14 -6 3 7 9 18 17 24 17 6 0 8 -1 6 -3z m-159 -32 c-10 -12
-10 -15 4 -15 9 0 16 -4 16 -8 0 -5 -7 -9 -15 -9 -8 0 -15 5 -15 10 0 5 -7 7
-14 4 -10 -4 -13 -1 -9 8 3 8 9 12 14 9 5 -3 12 2 15 11 4 9 9 14 12 11 3 -3
-1 -12 -8 -21z m291 -12 c-12 -20 -14 -14 -5 12 4 9 9 14 11 11 3 -2 0 -13 -6
-23z m224 17 c3 -6 -1 -7 -9 -4 -18 7 -21 14 -7 14 6 0 13 -4 16 -10z m-380
-21 c-4 -5 -19 -15 -33 -21 -16 -6 -22 -12 -14 -15 6 -3 10 -9 6 -14 -3 -5 -1
-9 5 -9 5 0 11 5 13 11 2 6 14 8 29 4 22 -5 26 -12 27 -46 1 -21 -1 -39 -6
-40 -4 0 -16 -2 -26 -4 -11 -2 -28 0 -37 6 -10 5 -20 5 -23 0 -3 -5 9 -11 27
-15 24 -5 28 -9 18 -15 -8 -5 -21 -6 -30 -3 -14 5 -14 4 -2 -12 8 -9 22 -15
32 -13 12 3 15 0 11 -15 -2 -10 -7 -17 -9 -14 -7 7 -27 -15 -36 -36 -3 -10
-11 -18 -17 -18 -6 0 -9 3 -7 8 3 4 -5 7 -18 7 -13 0 -22 -2 -20 -5 6 -10 -21
-25 -45 -24 -45 2 -51 4 -45 14 3 6 1 10 -4 10 -6 0 -11 -9 -11 -19 0 -21 -32
-39 -38 -22 -2 6 -8 8 -13 5 -6 -3 -3 -16 6 -31 9 -14 14 -27 12 -30 -3 -2
-13 9 -23 26 -10 17 -22 31 -27 31 -5 0 -2 -11 7 -25 19 -29 15 -32 -10 -7
-23 22 -54 25 -47 3 4 -9 3 -13 -2 -9 -4 4 -16 -3 -26 -16 -22 -28 -25 -41 -6
-30 7 5 6 0 -3 -11 -13 -15 -15 -16 -18 -3 -2 9 -13 18 -24 21 -19 5 -20 8 -7
23 12 16 12 17 -3 11 -10 -3 -18 -2 -18 4 0 5 -12 21 -26 34 -15 14 -23 25
-19 25 4 0 2 6 -4 14 -12 15 -28 16 -48 3 -9 -5 -13 -2 -13 8 0 9 -5 13 -10
10 -7 -4 -7 -12 0 -25 7 -14 6 -19 -9 -23 -10 -2 -18 1 -18 9 0 7 4 11 9 8 4
-3 8 0 8 5 0 6 -4 11 -10 11 -24 0 -5 22 71 79 44 34 78 61 73 61 -21 0 -134
-73 -128 -82 4 -7 2 -8 -4 -4 -7 4 -12 2 -12 -5 0 -7 -3 -9 -6 -6 -4 4 -1 14
6 22 18 22 109 81 138 90 19 6 22 3 22 -24 0 -29 29 -61 56 -61 22 0 54 38 55
66 1 29 1 29 9 4 4 -14 8 -19 9 -12 1 6 8 12 16 12 8 0 15 7 15 15 0 13 2 13
14 3 10 -9 11 -15 2 -21 -6 -4 3 -5 19 -1 17 4 32 11 35 15 3 5 17 2 31 -5 51
-26 77 -28 99 -4 26 28 28 73 3 64 -25 -10 26 44 52 54 27 12 27 12 20 -1z
m420 1 c3 -5 2 -10 -4 -10 -5 0 -13 5 -16 10 -3 6 -2 10 4 10 5 0 13 -4 16
-10z m-490 -20 c-3 -5 -13 -10 -21 -10 -9 0 -12 -5 -8 -12 5 -7 3 -8 -6 -3
-10 6 -9 11 5 22 22 15 39 17 30 3z m-103 -50 c5 -35 -6 -39 -23 -8 -9 17 -9
23 0 26 6 2 8 9 5 14 -4 6 -2 8 3 5 6 -4 13 -20 15 -37z m-159 19 c-6 -6 -9
-17 -6 -24 2 -8 -6 -19 -19 -26 -22 -12 -23 -11 -5 8 9 11 14 22 11 26 -8 8 5
27 19 27 8 0 8 -3 0 -11z m1797 -9 c0 -5 -4 -10 -10 -10 -5 0 -10 5 -10 10 0
6 5 10 10 10 6 0 10 -4 10 -10z m-1685 -5 c-29 -12 -95 -22 -95 -15 0 5 8 11
18 13 21 6 91 7 77 2z m-150 -14 c-9 -8 -36 -10 -30 -2 2 4 11 8 20 8 8 0 13
-3 10 -6z m642 -37 c-3 -3 -12 -4 -19 -1 -8 3 -5 6 6 6 11 1 17 -2 13 -5z
m-162 -34 c3 -6 -1 -7 -9 -4 -18 7 -21 14 -7 14 6 0 13 -4 16 -10z m-725 -44
c-5 -13 -6 -27 -2 -32 4 -4 1 -4 -6 0 -7 4 -11 10 -9 14 2 4 7 15 10 25 4 9 9
17 11 17 3 0 1 -11 -4 -24z m694 15 c3 -4 -6 -6 -19 -3 -14 2 -25 6 -25 8 0 8
39 4 44 -5z m-719 -21 c-3 -5 -12 -10 -18 -10 -7 0 -6 4 3 10 19 12 23 12 15
0z m2270 -16 c-16 -14 -46 -36 -65 -49 -19 -14 -54 -38 -78 -55 -23 -16 -45
-30 -47 -30 -2 0 -48 -30 -102 -67 -116 -79 -172 -105 -488 -230 -413 -164
-630 -232 -741 -233 -149 0 -254 98 -254 237 0 49 7 73 35 131 46 91 194 262
228 262 2 0 3 -47 3 -104 -1 -118 10 -145 75 -179 72 -39 330 -3 599 81 124
39 583 181 730 226 63 19 120 35 125 35 6 0 -3 -11 -20 -25z m-2308 -28 c0 -8
-6 -12 -15 -9 -11 5 -11 7 0 14 7 5 13 9 14 9 0 0 1 -6 1 -14z m-27 -26 c0 -5
-10 -10 -22 -10 -19 0 -20 2 -8 10 19 13 30 13 30 0z m80 -5 c0 -2 -9 -3 -19
-2 -11 0 -18 5 -15 9 4 6 34 0 34 -7z m105 -15 c-3 -5 -14 -10 -23 -10 -13 -1
-12 -4 6 -13 12 -7 19 -16 16 -20 -4 -4 -2 -7 4 -7 7 0 12 5 12 10 0 6 5 10
10 10 17 0 11 -14 -11 -28 -18 -12 -21 -11 -26 7 -3 11 -12 22 -20 25 -11 4
-13 2 -9 -9 3 -8 1 -15 -4 -15 -14 0 -12 16 2 40 7 11 21 20 31 20 10 0 15 -4
12 -10z m-200 -19 c-3 -6 -18 -11 -32 -11 -24 0 -25 -2 -19 -40 4 -23 2 -49
-4 -60 -14 -25 9 -37 39 -21 11 6 22 7 25 2 5 -7 -69 -32 -109 -37 -5 0 -21
-6 -35 -12 l-25 -12 25 1 c40 2 50 0 50 -11 0 -5 -8 -7 -17 -4 -10 2 -8 -1 4
-7 30 -16 73 -4 73 21 0 11 3 20 8 20 14 0 7 -50 -8 -51 -15 -1 54 -21 78 -22
6 0 12 -7 12 -14 0 -9 -5 -11 -12 -6 -7 4 -23 6 -35 4 -14 -1 -23 3 -23 11 -1
8 -6 6 -15 -6 -19 -26 -19 -36 2 -36 9 0 14 -3 11 -6 -3 -3 -32 2 -64 10 -33
8 -108 20 -168 26 -114 12 -133 17 -157 46 -13 16 -12 16 10 5 19 -11 25 -11
32 0 6 10 9 8 9 -8 0 -28 4 -29 30 -3 12 12 25 18 30 15 6 -3 18 -1 27 4 17
10 16 11 -2 12 -11 1 -24 1 -28 0 -5 -1 -7 4 -5 11 2 6 28 18 56 26 29 8 52
19 52 24 0 5 -9 4 -19 -2 -26 -13 -58 -13 -67 1 -4 8 1 9 15 4 27 -8 83 13 74
28 -3 5 -7 22 -9 37 -3 24 1 28 29 34 18 3 61 14 97 24 69 20 76 20 65 3z
m-148 3 c-3 -3 -12 -4 -19 -1 -8 3 -5 6 6 6 11 1 17 -2 13 -5z m543 -44 c-18
-11 -22 -7 -14 14 5 13 10 14 18 6 8 -8 7 -13 -4 -20z m-390 10 c0 -5 -7 -7
-15 -4 -8 4 -15 8 -15 10 0 2 7 4 15 4 8 0 15 -4 15 -10z m-210 -22 c10 -3 8
-6 -8 -10 -18 -5 -22 -2 -22 15 0 13 3 17 8 11 4 -6 14 -13 22 -16z m340 -10
c0 -19 -16 -5 -17 14 -2 18 0 20 7 8 5 -8 10 -18 10 -22z m-95 4 c-3 -3 -11 0
-18 7 -9 10 -8 11 6 5 10 -3 15 -9 12 -12z m130 8 c3 -6 -1 -7 -9 -4 -18 7
-21 14 -7 14 6 0 13 -4 16 -10z m192 -12 c-3 -8 -6 -5 -6 6 -1 11 2 17 5 13 3
-3 4 -12 1 -19z m-272 2 c-27 -12 -35 -12 -35 0 0 6 12 10 28 9 24 0 25 -1 7
-9z m-53 -19 c-5 -3 -12 -13 -15 -21 -4 -12 -6 -12 -6 2 -1 9 -11 19 -23 21
-13 2 -6 4 15 4 21 0 34 -3 29 -6z m76 -10 c2 -7 -5 -15 -17 -18 -12 -3 -21
-8 -21 -12 0 -4 -12 -8 -27 -9 -27 -1 -27 -1 -9 13 11 8 30 15 43 15 13 0 23
5 23 11 0 6 -9 8 -22 4 -18 -5 -20 -4 -8 4 18 13 32 10 38 -8z m379 13 c-3 -3
-12 -4 -19 -1 -8 3 -5 6 6 6 11 1 17 -2 13 -5z m-197 -8 c0 -3 -4 -8 -10 -11
-5 -3 -10 -1 -10 4 0 6 5 11 10 11 6 0 10 -2 10 -4z m138 -15 c3 -9 0 -12 -10
-9 -7 3 -22 0 -33 -8 -18 -13 -18 -14 6 -14 14 0 30 5 37 12 6 6 15 9 19 5 11
-11 -3 -18 -45 -24 -38 -5 -40 -4 -44 24 -4 29 -2 30 31 29 20 -1 36 -7 39
-15z m-428 0 c0 -9 -24 -21 -43 -21 -6 0 -2 7 9 15 22 17 34 19 34 6z m350
-17 c0 -8 -4 -12 -10 -9 -5 3 -10 10 -10 16 0 5 5 9 10 9 6 0 10 -7 10 -16z
m1930 6 c0 -5 -5 -10 -11 -10 -5 0 -7 5 -4 10 3 6 8 10 11 10 2 0 4 -4 4 -10z
m-2160 -25 c0 -8 -8 -15 -18 -15 -10 0 -24 -6 -32 -12 -8 -7 -6 -3 4 9 10 13
23 20 27 17 5 -3 9 0 9 5 0 6 2 11 5 11 3 0 5 -7 5 -15z m37 9 c-3 -3 -12 -4
-19 -1 -8 3 -5 6 6 6 11 1 17 -2 13 -5z m-567 -14 c0 -5 -4 -10 -10 -10 -5 0
-10 5 -10 10 0 6 5 10 10 10 6 0 10 -4 10 -10z m97 -42 c-3 -8 -6 -5 -6 6 -1
11 2 17 5 13 3 -3 4 -12 1 -19z m346 10 c-12 -6 -24 -20 -26 -32 -3 -17 -5
-16 -6 6 -1 26 10 36 39 37 9 0 6 -5 -7 -11z m87 1 c12 -8 10 -9 -7 -4 -14 4
-23 2 -23 -4 0 -6 5 -11 12 -11 6 0 9 -2 6 -5 -3 -3 -13 -3 -22 1 -13 5 -14 9
-5 20 14 17 19 17 39 3z m2240 -69 c0 -5 -5 -10 -11 -10 -5 0 -7 5 -4 10 3 6
8 10 11 10 2 0 4 -4 4 -10z m-3080 -38 c0 -10 -7 -27 -15 -38 -15 -18 -15 -18
-8 0 5 15 3 17 -8 12 -8 -4 -5 0 6 9 19 15 19 16 -14 10 -19 -3 -38 -8 -43
-11 -4 -3 -8 -1 -8 5 0 5 19 14 43 19 23 6 43 10 45 11 1 1 2 -7 2 -17z m541
-3 c52 -9 69 -16 69 -28 0 -14 -2 -14 -11 -1 -8 12 -9 11 -4 -6 7 -26 -19 -53
-29 -29 -3 8 -13 15 -23 15 -14 0 -15 2 -4 9 11 7 9 10 -7 15 -11 4 -24 6 -28
5 -11 -3 -64 19 -64 26 0 8 24 6 101 -6z m-641 -13 c0 -3 -4 -8 -10 -11 -5 -3
-10 -1 -10 4 0 6 5 11 10 11 6 0 10 -2 10 -4z m747 -38 c0 -18 -2 -27 -4 -20
-7 20 -23 13 -23 -10 0 -18 -2 -20 -9 -9 -9 15 -5 37 12 59 16 20 24 14 24
-20z m-700 15 c-4 -3 1 -12 11 -19 16 -12 16 -14 -2 -31 -10 -10 -16 -12 -12
-5 5 7 1 12 -11 12 -13 0 -15 2 -5 9 7 4 12 12 11 17 -2 14 0 24 8 24 3 0 3
-3 0 -7z m757 -2 c4 -5 -3 -7 -14 -4 -23 6 -26 13 -6 13 8 0 17 -4 20 -9z m-9
-29 c-3 -3 -11 0 -18 7 -9 10 -8 11 6 5 10 -3 15 -9 12 -12z m2585 4 c0 -3 -4
-8 -10 -11 -5 -3 -10 -1 -10 4 0 6 5 11 10 11 6 0 10 -2 10 -4z m-3383 -28
c-3 -8 -6 -5 -6 6 -1 11 2 17 5 13 3 -3 4 -12 1 -19z m3273 12 c0 -5 -4 -10
-10 -10 -5 0 -10 5 -10 10 0 6 5 10 10 10 6 0 10 -4 10 -10z m-110 -20 c0 -5
-4 -10 -10 -10 -5 0 -10 5 -10 10 0 6 5 10 10 10 6 0 10 -4 10 -10z m-3120
-14 c0 -2 -8 -10 -17 -17 -16 -13 -17 -12 -4 4 13 16 21 21 21 13z m2960 -6
c0 -5 -7 -10 -16 -10 -8 0 -12 5 -9 10 3 6 10 10 16 10 5 0 9 -4 9 -10z m-110
-10 c0 -5 -7 -10 -16 -10 -8 0 -12 5 -9 10 3 6 10 10 16 10 5 0 9 -4 9 -10z
m-256 -21 c-3 -5 -10 -7 -15 -3 -5 3 -7 10 -3 15 3 5 10 7 15 3 5 -3 7 -10 3
-15z m136 11 c0 -5 -7 -10 -16 -10 -8 0 -12 5 -9 10 3 6 10 10 16 10 5 0 9 -4
9 -10z m695 -69 c-3 -6 -11 -11 -17 -11 -6 0 -6 6 2 15 14 17 26 13 15 -4z
m-115 -1 c0 -5 -4 -10 -10 -10 -5 0 -10 5 -10 10 0 6 5 10 10 10 6 0 10 -4 10
-10z m-100 -9 c0 -12 -20 -25 -27 -18 -7 7 6 27 18 27 5 0 9 -4 9 -9z m-170
-26 c0 -8 -7 -15 -16 -15 -14 0 -14 3 -4 15 7 8 14 15 16 15 2 0 4 -7 4 -15z
m-120 -10 c-7 -8 -16 -15 -21 -15 -5 0 -6 7 -3 15 4 8 13 15 21 15 13 0 13 -3
3 -15z m-269 -18 c-13 -13 -26 -3 -16 12 3 6 11 8 17 5 6 -4 6 -10 -1 -17z
m159 14 c0 -5 -7 -11 -15 -15 -15 -5 -20 5 -8 17 9 10 23 9 23 -2z m-375 -21
c-3 -5 -10 -10 -16 -10 -5 0 -9 5 -9 10 0 6 7 10 16 10 8 0 12 -4 9 -10z m110
0 c-3 -5 -10 -10 -16 -10 -5 0 -9 5 -9 10 0 6 7 10 16 10 8 0 12 -4 9 -10z"/>
<path d="M3810 3185 c0 -2 7 -8 15 -15 12 -10 15 -10 15 2 0 8 -7 15 -15 15
-8 0 -15 -1 -15 -2z"/>
<path d="M3570 2816 c-19 -7 -43 -12 -52 -10 -11 1 -18 -4 -18 -14 0 -13 -2
-14 -9 -4 -6 10 -23 12 -61 7 -29 -3 -57 -8 -62 -11 -5 -3 -14 -1 -21 5 -10 7
-13 4 -15 -14 -2 -27 27 -39 43 -18 6 7 43 14 88 17 44 3 85 10 93 17 8 6 14
8 14 4 0 -5 8 -1 18 7 9 8 29 13 45 12 15 -2 25 1 22 7 -8 12 -43 10 -85 -5z"/>
<path d="M3295 2800 c-16 -7 -17 -9 -3 -9 9 -1 20 4 23 9 7 11 7 11 -20 0z"/>
<path d="M3300 2743 c0 -4 5 -15 10 -23 8 -13 10 -13 10 2 0 9 -4 20 -10 23
-5 3 -10 3 -10 -2z"/>
<path d="M3267 2713 c-3 -5 1 -14 8 -20 11 -10 13 -9 12 7 -1 20 -12 26 -20
13z"/>
<path d="M2795 2510 c-3 -6 1 -7 9 -4 18 7 21 14 7 14 -6 0 -13 -4 -16 -10z"/>
<path d="M2840 2460 c-8 -5 -10 -10 -5 -10 6 0 17 5 25 10 8 5 11 10 5 10 -5
0 -17 -5 -25 -10z"/>
<path d="M2886 2459 c3 -5 -3 -9 -13 -9 -15 0 -15 -2 -3 -9 8 -6 17 -8 21 -5
4 2 10 0 14 -6 10 -16 33 -12 44 8 7 13 6 19 -2 20 -7 0 -24 3 -39 5 -15 2
-25 0 -22 -4z m54 -19 c0 -5 -4 -10 -10 -10 -5 0 -10 5 -10 10 0 6 5 10 10 10
6 0 10 -4 10 -10z"/>
<path d="M5452 3310 c-9 -15 -10 -26 -3 -38 9 -14 10 -12 11 11 0 16 4 26 10
22 6 -3 7 1 4 9 -8 20 -7 20 -22 -4z"/>
<path d="M5423 3253 c-3 -10 -14 -38 -24 -62 -16 -36 -16 -41 -3 -30 22 18 57
89 44 89 -6 0 -8 5 -5 10 3 6 4 10 0 10 -3 0 -8 -8 -12 -17z"/>
<path d="M5475 3219 c-11 -16 -1 -19 13 -3 7 8 8 14 3 14 -5 0 -13 -5 -16 -11z"/>
<path d="M4470 3201 c0 -9 30 -24 36 -18 2 1 -6 8 -16 15 -11 7 -20 8 -20 3z"/>
<path d="M5438 3173 c18 -7 15 -21 -8 -28 -11 -3 -20 -11 -20 -17 0 -6 6 -6
15 2 8 7 15 9 15 6 0 -4 7 0 17 9 14 14 14 18 2 26 -8 5 -18 8 -24 8 -5 0 -4
-3 3 -6z"/>
<path d="M5185 2980 c3 -5 8 -10 11 -10 2 0 4 5 4 10 0 6 -5 10 -11 10 -5 0
-7 -4 -4 -10z"/>
<path d="M5115 2960 c3 -5 8 -10 11 -10 2 0 4 5 4 10 0 6 -5 10 -11 10 -5 0
-7 -4 -4 -10z"/>
<path d="M5215 1796 c29 -15 28 -15 -42 -16 -40 0 -73 -3 -73 -7 0 -5 33 -7
74 -5 l73 3 6 -31 c8 -36 -13 -84 -42 -100 -38 -20 -88 -12 -116 17 -27 30
-31 54 -14 101 7 22 18 32 37 35 15 2 -29 4 -98 5 -69 0 -136 -4 -150 -8 l-25
-8 26 -1 c38 -1 56 -48 40 -101 -18 -62 -70 -85 -134 -61 -32 13 -58 76 -48
122 6 33 9 34 61 40 89 9 28 9 -188 -1 -111 -5 -220 -14 -242 -20 -64 -17
-103 -84 -81 -138 20 -48 42 -55 190 -54 74 1 141 4 150 7 9 2 150 13 313 24
349 23 371 30 385 113 8 50 -27 88 -87 94 l-45 4 30 -14z m-657 -54 c40 -53
15 -124 -50 -144 -51 -15 -86 -2 -108 40 -18 34 -14 82 9 105 29 29 127 29
149 -1z"/>
<path d="M4473 1743 c9 -2 23 -2 30 0 6 3 -1 5 -18 5 -16 0 -22 -2 -12 -5z"/>
<path d="M4755 1760 c3 -5 8 -10 11 -10 2 0 4 5 4 10 0 6 -5 10 -11 10 -5 0
-7 -4 -4 -10z"/>
<path d="M4808 1763 c18 -2 45 -2 60 0 15 2 0 4 -33 4 -33 0 -45 -2 -27 -4z"/>
<path d="M6063 1691 c-107 -79 -231 -120 -443 -148 -119 -15 -190 -39 -190
-64 0 -5 -8 -9 -17 -9 -10 0 -26 -7 -36 -15 -14 -10 -25 -11 -42 -3 -27 12
-131 2 -141 -13 -4 -7 6 -8 28 -4 18 3 91 2 161 -4 114 -9 135 -8 185 8 32 10
104 24 162 30 91 9 116 16 187 52 105 52 163 98 192 149 37 66 23 72 -46 21z"/>
<path d="M1958 1463 c7 -3 16 -2 19 1 4 3 -2 6 -13 5 -11 0 -14 -3 -6 -6z"/>
<path d="M2237 1450 c-5 -19 -1 -20 88 -18 85 3 92 5 84 21 -8 14 -24 17 -88
17 -70 0 -79 -2 -84 -20z"/>
<path d="M2726 1434 c-11 -30 -6 -34 48 -34 73 0 89 7 75 31 -13 25 -113 28
-123 3z"/>
<path d="M3276 1432 c-4 -12 -12 -23 -19 -25 -7 -2 -1 -2 12 0 13 2 213 4 445
5 231 0 416 2 410 5 -6 2 -182 8 -390 13 -209 5 -395 12 -416 15 -31 6 -37 4
-42 -13z"/>
<path d="M4524 1440 c-30 -12 -37 -27 -17 -34 21 -9 251 4 278 15 16 6 14 8
-12 8 -17 1 -35 6 -38 11 -3 6 -28 10 -54 10 -40 0 -50 -3 -54 -20 -3 -11 -13
-20 -22 -20 -9 0 -19 9 -22 20 -6 21 -24 24 -59 10z"/>
<path d="M5060 1440 c-36 -5 -76 -6 -90 -4 -22 4 -23 4 -4 -5 25 -11 196 -2
188 10 -3 5 -11 8 -17 8 -7 -1 -41 -5 -77 -9z"/>
<path d="M4863 1423 c9 -2 23 -2 30 0 6 3 -1 5 -18 5 -16 0 -22 -2 -12 -5z"/>
<path d="M2513 1403 c9 -2 25 -2 35 0 9 3 1 5 -18 5 -19 0 -27 -2 -17 -5z"/>
<path d="M2598 1403 c12 -2 30 -2 40 0 9 3 -1 5 -23 4 -22 0 -30 -2 -17 -4z"/>
</g>
</svg>
